<?xml version="1.0" encoding="UTF-8"?>
<!DOCTYPE svg PUBLIC "-//W3C//DTD SVG 1.1//EN" "http://www.w3.org/Graphics/SVG/1.1/DTD/svg11.dtd">
<svg xmlns="http://www.w3.org/2000/svg" version="1.1" width="320px" height="96px" style="shape-rendering:geometricPrecision; text-rendering:geometricPrecision; image-rendering:optimizeQuality; fill-rule:evenodd; clip-rule:evenodd" xmlns:xlink="http://www.w3.org/1999/xlink">
<g><path style="opacity:0.515" fill="#fefefe" d="M 22.5,-0.5 C 23.8333,-0.5 25.1667,-0.5 26.5,-0.5C 26.5,12.1667 26.5,24.8333 26.5,37.5C 25.5,37.5 24.5,37.5 23.5,37.5C 23.5,34.1667 23.5,30.8333 23.5,27.5C 18.1254,27.1718 12.7921,27.5052 7.5,28.5C 5.83333,31.1667 4.16667,33.8333 2.5,36.5C 1.67504,37.3857 0.675044,37.719 -0.5,37.5C -0.5,36.8333 -0.5,36.1667 -0.5,35.5C 7.15294,23.5364 14.8196,11.5364 22.5,-0.5 Z M 22.5,3.5 C 23.4916,10.6476 23.825,17.9809 23.5,25.5C 18.8215,25.6658 14.1548,25.4992 9.5,25C 14.0862,17.9301 18.4195,10.7634 22.5,3.5 Z"/></g>
<g><path style="opacity:0.521" fill="#fefefe" d="M 29.5,-0.5 C 34.1667,-0.5 38.8333,-0.5 43.5,-0.5C 51.5863,2.42306 56.753,8.08973 59,16.5C 60.3972,8.27922 64.8972,2.61256 72.5,-0.5C 76.5,-0.5 80.5,-0.5 84.5,-0.5C 97.5993,6.63816 100.766,16.9715 94,30.5C 83.0211,41.4419 72.3544,41.1086 62,29.5C 60.2503,26.7536 59.2503,23.7536 59,20.5C 54.4846,35.0169 44.6512,40.6836 29.5,37.5C 29.5,24.8333 29.5,12.1667 29.5,-0.5 Z M 74.5,1.5 C 86.5909,0.92749 93.5909,6.59416 95.5,18.5C 92.4397,33.5281 83.7731,38.3615 69.5,33C 58.8522,23.4269 58.8522,13.7602 69.5,4C 71.3146,3.24316 72.9812,2.40982 74.5,1.5 Z M 32.5,2.5 C 45.9582,0.209727 53.6249,5.70973 55.5,19C 53.0765,31.568 45.4098,37.068 32.5,35.5C 32.5,24.5 32.5,13.5 32.5,2.5 Z"/></g>
<g><path style="opacity:0.514" fill="#fdfdfd" d="M 99.5,-0.5 C 100.5,-0.5 101.5,-0.5 102.5,-0.5C 102.5,11.5 102.5,23.5 102.5,35.5C 108.206,35.1712 113.872,35.5046 119.5,36.5C 112.866,37.4967 106.2,37.83 99.5,37.5C 99.5,24.8333 99.5,12.1667 99.5,-0.5 Z"/></g>
<g><path style="opacity:0.52" fill="#fefffe" d="M 121.5,-0.5 C 128.5,-0.5 135.5,-0.5 142.5,-0.5C 142.586,0.495904 142.252,1.32924 141.5,2C 135.843,2.49942 130.176,2.66609 124.5,2.5C 124.5,7.5 124.5,12.5 124.5,17.5C 143.167,18.1667 143.167,18.8333 124.5,19.5C 124.5,24.8333 124.5,30.1667 124.5,35.5C 130.537,35.1707 136.537,35.5041 142.5,36.5C 135.532,37.497 128.532,37.8303 121.5,37.5C 121.5,24.8333 121.5,12.1667 121.5,-0.5 Z"/></g>
<g><path style="opacity:0.52" fill="#fefefe" d="M 149.5,-0.5 C 153.167,-0.5 156.833,-0.5 160.5,-0.5C 161.848,0.60064 163.348,1.60064 165,2.5C 165.563,3.72485 165.23,4.72485 164,5.5C 158.26,0.244045 152.594,0.244045 147,5.5C 144.965,9.30222 145.798,12.4689 149.5,15C 153.833,16.6667 158.167,18.3333 162.5,20C 169.167,25.3333 169.167,30.6667 162.5,36C 154.494,39.6653 147.828,37.9986 142.5,31C 143.025,30.3076 143.692,29.8076 144.5,29.5C 150.687,36.9821 157.187,37.3155 164,30.5C 165.176,26.7399 164.01,23.9066 160.5,22C 156.167,20.3333 151.833,18.6667 147.5,17C 141.755,10.3887 142.421,4.55539 149.5,-0.5 Z"/></g>
<g><path style="opacity:0.528" fill="#fefefe" d="M 181.5,-0.5 C 185.167,-0.5 188.833,-0.5 192.5,-0.5C 193.984,0.473322 194.484,1.80666 194,3.5C 183.354,-0.349268 175.687,2.98407 171,13.5C 168.803,23.9532 172.636,31.1199 182.5,35C 186.62,35.2458 190.62,35.4124 194.5,35.5C 194.291,36.086 193.957,36.586 193.5,37C 175.966,39.801 167.466,32.301 168,14.5C 170.29,7.38267 174.79,2.38267 181.5,-0.5 Z"/></g>
<g><path style="opacity:0.622" fill="#fefffe" d="M 197.5,-0.5 C 204.167,-0.5 210.833,-0.5 217.5,-0.5C 217.586,0.495904 217.252,1.32924 216.5,2C 210.843,2.49942 205.176,2.66609 199.5,2.5C 199.5,7.5 199.5,12.5 199.5,17.5C 218.167,18.1667 218.167,18.8333 199.5,19.5C 199.5,24.8333 199.5,30.1667 199.5,35.5C 205.537,35.1707 211.537,35.5041 217.5,36.5C 210.866,37.4967 204.2,37.83 197.5,37.5C 197.5,24.8333 197.5,12.1667 197.5,-0.5 Z"/></g>
<g><path style="opacity:0.483" fill="#fefefe" d="M 219.5,-0.5 C 220.5,-0.5 221.5,-0.5 222.5,-0.5C 228.775,10.2811 235.275,20.9477 242,31.5C 242.5,20.8385 242.667,10.1719 242.5,-0.5C 243.5,-0.5 244.5,-0.5 245.5,-0.5C 245.5,12.1667 245.5,24.8333 245.5,37.5C 244.022,37.762 242.689,37.4287 241.5,36.5C 235.333,26.1667 229.167,15.8333 223,5.5C 222.5,16.1615 222.333,26.8281 222.5,37.5C 221.5,37.5 220.5,37.5 219.5,37.5C 219.5,24.8333 219.5,12.1667 219.5,-0.5 Z"/></g>
<g><path style="opacity:0.469" fill="#fefefe" d="M 247.5,-0.5 C 255.833,-0.5 264.167,-0.5 272.5,-0.5C 272.586,0.495904 272.252,1.32924 271.5,2C 268.183,2.49834 264.85,2.66501 261.5,2.5C 261.5,14.1667 261.5,25.8333 261.5,37.5C 260.5,37.5 259.5,37.5 258.5,37.5C 258.5,25.8333 258.5,14.1667 258.5,2.5C 255.15,2.66501 251.817,2.49834 248.5,2C 247.748,1.32924 247.414,0.495904 247.5,-0.5 Z"/></g>
<g><path style="opacity:0.533" fill="#fefefe" d="M 274.5,-0.5 C 281.167,-0.5 287.833,-0.5 294.5,-0.5C 294.586,0.495904 294.252,1.32924 293.5,2C 288.177,2.49935 282.844,2.66602 277.5,2.5C 277.5,7.5 277.5,12.5 277.5,17.5C 296.167,18.1667 296.167,18.8333 277.5,19.5C 277.5,24.8333 277.5,30.1667 277.5,35.5C 283.206,35.1712 288.872,35.5046 294.5,36.5C 287.866,37.4967 281.2,37.83 274.5,37.5C 274.5,24.8333 274.5,12.1667 274.5,-0.5 Z"/></g>
<g><path style="opacity:0.524" fill="#fefefe" d="M 302.5,-0.5 C 306.167,-0.5 309.833,-0.5 313.5,-0.5C 315.123,0.77943 316.79,2.11276 318.5,3.5C 318.192,4.30806 317.692,4.97473 317,5.5C 311.6,0.633333 305.933,0.3 300,4.5C 297.523,8.77962 298.356,12.2796 302.5,15C 307.331,16.6105 311.997,18.6105 316.5,21C 317.636,22.1451 318.636,23.3117 319.5,24.5C 319.5,26.8333 319.5,29.1667 319.5,31.5C 314.144,38.3372 307.477,39.8372 299.5,36C 297.787,34.6218 296.453,32.9552 295.5,31C 296.025,30.3076 296.692,29.8076 297.5,29.5C 301.575,35.3475 306.909,36.8475 313.5,34C 318.197,30.6232 318.53,26.9566 314.5,23C 309.833,21 305.167,19 300.5,17C 296.053,13.6681 294.886,9.50147 297,4.5C 298.352,2.25103 300.185,0.584365 302.5,-0.5 Z"/></g>
<g><path style="opacity:0.858" fill="#fefefe" d="M 108.5,95.5 C 88.5,95.5 68.5,95.5 48.5,95.5C 31.6045,87.3168 27.1045,74.6501 35,57.5C 37.74,53.0418 41.5733,49.8752 46.5,48C 57.1113,46.8812 67.778,46.3812 78.5,46.5C 89.222,46.3812 99.8887,46.8812 110.5,48C 123.795,54.5345 128.628,65.0345 125,79.5C 121.562,87.1066 116.062,92.44 108.5,95.5 Z M 51.5,51.5 C 65.2629,51.2637 73.2629,57.9303 75.5,71.5C 72.0976,87.5397 62.431,93.373 46.5,89C 32.741,78.4436 32.0744,67.1103 44.5,55C 46.9252,53.7874 49.2585,52.6207 51.5,51.5 Z M 83.5,51.5 C 85.604,51.2011 87.604,51.5344 89.5,52.5C 95.1667,61.8333 100.833,71.1667 106.5,80.5C 107.498,70.8563 107.832,61.1896 107.5,51.5C 109.167,51.5 110.833,51.5 112.5,51.5C 112.5,64.5 112.5,77.5 112.5,90.5C 110.208,90.7564 108.041,90.4231 106,89.5C 100.333,80.1667 94.6667,70.8333 89,61.5C 88.5002,71.1609 88.3335,80.8276 88.5,90.5C 86.8333,90.5 85.1667,90.5 83.5,90.5C 83.5,77.5 83.5,64.5 83.5,51.5 Z"/></g>
<g><path style="opacity:0.83" fill="#fefefe" d="M -0.5,77.5 C -0.5,73.5 -0.5,69.5 -0.5,65.5C 4.65524,51.4187 14.6552,45.9187 29.5,49C 30.7825,51.7947 30.7825,54.6281 29.5,57.5C 16.7484,53.5776 9.41504,58.2443 7.5,71.5C 8.14821,80.8149 13.1482,85.8149 22.5,86.5C 25.2057,86.5189 27.7057,85.8522 30,84.5C 30.498,87.4816 30.6646,90.4816 30.5,93.5C 15.5479,96.8417 5.21457,91.5083 -0.5,77.5 Z"/></g>
<g><path style="opacity:0.838" fill="#fefefe" d="M 127.5,47.5 C 130.167,47.5 132.833,47.5 135.5,47.5C 135.333,58.1719 135.5,68.8385 136,79.5C 142.167,69.1667 148.333,58.8333 154.5,48.5C 157.428,47.5159 160.428,47.1826 163.5,47.5C 155.383,63.0598 146.716,78.3931 137.5,93.5C 134.232,94.487 130.898,94.8204 127.5,94.5C 127.5,78.8333 127.5,63.1667 127.5,47.5 Z"/></g>
<g><path style="opacity:0.835" fill="#fefffe" d="M 167.5,47.5 C 169.833,47.5 172.167,47.5 174.5,47.5C 174.5,63.1667 174.5,78.8333 174.5,94.5C 171.833,94.5 169.167,94.5 166.5,94.5C 166.183,78.7556 166.516,63.089 167.5,47.5 Z"/></g>
<g><path style="opacity:0.834" fill="#fefefe" d="M 201.5,47.5 C 204.389,48.008 207.222,48.6747 210,49.5C 210.818,52.2272 210.652,54.8938 209.5,57.5C 199.571,53.7789 192.405,56.7789 188,66.5C 187.087,82.7004 194.42,88.7004 210,84.5C 210.498,87.4816 210.665,90.4816 210.5,93.5C 195.632,96.9836 185.465,91.6503 180,77.5C 177.679,60.42 184.845,50.42 201.5,47.5 Z"/></g>
<g><path style="opacity:0.79" fill="#fefffe" d="M 214.5,47.5 C 223.5,47.5 232.5,47.5 241.5,47.5C 241.5,50.1667 241.5,52.8333 241.5,55.5C 238.5,55.5 235.5,55.5 232.5,55.5C 232.5,68.5 232.5,81.5 232.5,94.5C 229.552,94.7771 226.719,94.4438 224,93.5C 223.5,80.8377 223.333,68.1711 223.5,55.5C 220.5,55.5 217.5,55.5 214.5,55.5C 214.5,52.8333 214.5,50.1667 214.5,47.5 Z"/></g>
<g><path style="opacity:0.844" fill="#fefefe" d="M 259.5,47.5 C 280.284,49.0532 288.451,60.0532 284,80.5C 275.13,94.676 263.297,97.8427 248.5,90C 238.294,80.0523 236.794,68.8857 244,56.5C 248.29,51.7786 253.457,48.7786 259.5,47.5 Z M 260.5,55.5 C 274.624,57.1244 279.79,64.7911 276,78.5C 269.563,87.2012 261.73,88.7012 252.5,83C 243.797,70.4021 246.464,61.2354 260.5,55.5 Z"/></g>
<g><path style="opacity:0.832" fill="#fefefe" d="M 319.5,77.5 C 319.5,80.1667 319.5,82.8333 319.5,85.5C 311.39,95.8298 301.89,97.1631 291,89.5C 290.293,87.9194 289.46,86.4194 288.5,85C 290.39,83.8877 292.39,83.0544 294.5,82.5C 297.227,84.7774 300.393,86.1107 304,86.5C 311.674,85.8857 313.174,82.7191 308.5,77C 304.167,75.3333 299.833,73.6667 295.5,72C 293,70.8333 291.167,69 290,66.5C 287.129,56.0648 290.962,49.8982 301.5,48C 307.821,47.1564 313.154,48.9898 317.5,53.5C 315.54,55.1563 313.54,56.823 311.5,58.5C 305.565,54.07 300.565,54.9034 296.5,61C 297.126,61.7504 297.626,62.5838 298,63.5C 302.531,66.2369 307.364,68.4036 312.5,70C 315.746,71.7424 318.079,74.2424 319.5,77.5 Z"/></g>
</svg>
